# xmcd
#
# Track frame offsets:
#	150
#	19852
#	25978
#	51635
#	58238
#	71610
#	86889
#
# Disc length: 1528 seconds
#
# Revision: 0
# Processed by: cddbd v1.5.2PL0 Copyright (c) Steve Scherf et al.
# Submitted via: EZCDAudioConverter 2.1.7.1
#
DISCID=6605f607
DTITLE=Mr. Chop - Lightworlds
DYEAR=1900
DGENRE=
TTITLE0=The Infinity Machine
TTITLE1=Transhuman
TTITLE2=Zoid
TTITLE3=Conversations
TTITLE4=Don't Try To Think
TTITLE5=Stark
TTITLE6=Metropoli Del Ferro
EXTD=
EXTT0=
EXTT1=
EXTT2=
EXTT3=
EXTT4=
EXTT5=
EXTT6=
PLAYORDER=
